<?xml version="1.0" encoding="iso-8859-1"?>
<!-- Generator: Adobe Illustrator 19.0.0, SVG Export Plug-In . SVG Version: 6.00 Build 0)  -->
<svg version="1.1" id="Capa_1" xmlns="http://www.w3.org/2000/svg" xmlns:xlink="http://www.w3.org/1999/xlink" x="0px" y="0px"
	 viewBox="0 0 464 464" style="enable-background:new 0 0 464 464;" xml:space="preserve">
<path style="fill:#696969;" d="M432,16H192c-17.647-0.027-31.973,14.257-32,31.904c0,0.032,0,0.064,0,0.096v80
	c0,17.673,14.327,32,32,32h240c17.647,0.027,31.973-14.257,32-31.904c0-0.032,0-0.064,0-0.096V48C464,30.327,449.673,16,432,16z"/>
<path style="fill:#5E5E5F;" d="M432,16h-80c17.673,0,32,14.327,32,32v80c0.001,2.166-0.216,4.326-0.648,6.448
	C380.291,149.327,367.191,160.004,352,160h80c17.647,0.027,31.973-14.257,32-31.904c0-0.032,0-0.064,0-0.096V48
	C464,30.327,449.673,16,432,16z"/>
<g>
	<path style="fill:#535354;" d="M160,80h304v16H160V80z"/>
	<path style="fill:#535354;" d="M160,112h304v16H160V112z"/>
	<path style="fill:#535354;" d="M160,48h304v16H160V48z"/>
</g>
<path style="fill:#696969;" d="M432,304H192c-17.647-0.027-31.973,14.257-32,31.904c0,0.032,0,0.064,0,0.096v80
	c0,17.673,14.327,32,32,32h240c17.647,0.027,31.973-14.257,32-31.904c0-0.032,0-0.064,0-0.096v-80C464,318.327,449.673,304,432,304z
	"/>
<path style="fill:#5E5E5F;" d="M432,304h-80c17.673,0,32,14.327,32,32v80c0.001,2.166-0.216,4.326-0.648,6.448
	C380.291,437.327,367.191,448.004,352,448h80c17.647,0.027,31.973-14.257,32-31.904c0-0.032,0-0.064,0-0.096v-80
	C464,318.327,449.673,304,432,304z"/>
<g>
	<path style="fill:#535354;" d="M160,368h304v16H160V368z"/>
	<path style="fill:#535354;" d="M160,400h304v16H160V400z"/>
	<path style="fill:#535354;" d="M160,336h304v16H160V336z"/>
</g>
<path style="fill:#5E5E5F;" d="M400,160H160c-17.647-0.027-31.973,14.257-32,31.904c0,0.032,0,0.064,0,0.096v80
	c0,17.673,14.327,32,32,32h240c17.647,0.027,31.973-14.257,32-31.904c0-0.032,0-0.064,0-0.096v-80C432,174.327,417.673,160,400,160z
	"/>
<path style="fill:#585859;" d="M400,160h-80c17.673,0,32,14.327,32,32v80c0.001,2.166-0.216,4.326-0.648,6.448
	C348.291,293.327,335.191,304.004,320,304h80c17.647,0.027,31.973-14.257,32-31.904c0-0.032,0-0.064,0-0.096v-80
	C432,174.327,417.673,160,400,160z"/>
<g>
	<path style="fill:#535354;" d="M128,224h304v16H128V224z"/>
	<path style="fill:#535354;" d="M128,256h304v16H128V256z"/>
	<path style="fill:#535354;" d="M128,192h304v16H128V192z"/>
</g>
<circle style="fill:#4398D1;" cx="160" cy="288" r="120"/>
<path style="fill:#737373;" d="M160,128C71.634,128,0,199.634,0,288s71.634,160,160,160s160-71.634,160-160S248.366,128,160,128z
	 M160,408c-66.274,0-120-53.726-120-120s53.726-120,120-120s120,53.726,120,120S226.274,408,160,408z"/>
<path style="fill:#87CED9;" d="M208,288l65.752-37.96c-1.304-3.84-2.752-7.616-4.4-11.288l-0.144-0.28
	c-1.008-2.216-2.192-4.328-3.336-6.472c-0.704-1.328-1.312-2.712-2.064-4l-0.112-0.184c-2-3.435-4.157-6.755-6.472-9.96
	c-2.341-3.243-4.84-6.36-7.496-9.352L184,246.4v-76h-0.288c-3.784-0.76-7.624-1.36-11.536-1.752c-8.097-0.821-16.255-0.821-24.352,0
	c-3.808,0.384-7.544,0.976-11.2,1.704c-0.208,0.224-0.392,0.48-0.592,0.72V246.4l-65.688-37.928l-0.216,0.232
	c-2.576,2.92-5.024,5.952-7.312,9.112c-2.315,3.2-4.472,6.52-6.472,9.96l-0.112,0.184c-1.974,3.401-3.776,6.899-5.4,10.48
	l-0.144,0.28c-1.648,3.669-3.117,7.429-4.408,11.28L112,288l-65.768,37.968c1.285,3.851,2.757,7.608,4.416,11.272l0.144,0.28
	c1.632,3.589,3.432,7.083,5.4,10.48l0.112,0.184c2,3.435,4.157,6.755,6.472,9.96c2.342,3.242,4.847,6.363,7.504,9.352L136,329.6v76
	l0.288,0.04c3.784,0.76,7.624,1.36,11.536,1.752c8.097,0.821,16.255,0.821,24.352,0c3.912-0.392,7.752-0.992,11.536-1.752L184,405.6
	v-76l65.712,37.936c2.657-2.989,5.162-6.11,7.504-9.352c2.315-3.2,4.472-6.52,6.472-9.96l0.112-0.184c0.752-1.296,1.36-2.68,2.064-4
	c1.144-2.144,2.328-4.248,3.336-6.472l0.144-0.28c1.648-3.664,3.12-7.421,4.416-11.272L208,288z M144,288c0-8.837,7.163-16,16-16
	s16,7.163,16,16s-7.163,16-16,16S144,296.837,144,288z"/>
<path style="fill:#71C4D1;" d="M273.752,250.04c-1.304-3.84-2.752-7.616-4.4-11.288l-0.144-0.28
	c-1.008-2.216-2.192-4.328-3.336-6.472c-0.704-1.328-1.312-2.712-2.064-4l-0.112-0.184c-0.216-0.368-0.48-0.704-0.696-1.072
	L187.104,271.2c9.355,14.921,4.843,34.601-10.078,43.956s-34.601,4.843-43.956-10.078c-0.344-0.549-0.672-1.109-0.982-1.678
	l-76,44.48l0.088,0.168l0.112,0.184c2,3.435,4.157,6.755,6.472,9.96c2.342,3.242,4.847,6.363,7.504,9.352L136,329.6v76l0.288,0.04
	c3.784,0.76,7.624,1.36,11.536,1.752c8.097,0.821,16.255,0.821,24.352,0c3.912-0.392,7.752-0.992,11.536-1.752L184,405.6v-76
	l65.712,37.936c2.657-2.989,5.162-6.11,7.504-9.352c2.315-3.2,4.472-6.52,6.472-9.96l0.112-0.184c0.752-1.296,1.36-2.68,2.064-4
	c1.144-2.144,2.328-4.248,3.336-6.472l0.144-0.28c1.648-3.664,3.12-7.421,4.416-11.272L208,288L273.752,250.04z"/>
<g>
</g>
<g>
</g>
<g>
</g>
<g>
</g>
<g>
</g>
<g>
</g>
<g>
</g>
<g>
</g>
<g>
</g>
<g>
</g>
<g>
</g>
<g>
</g>
<g>
</g>
<g>
</g>
<g>
</g>
</svg>
