<?xml version="1.0" encoding="iso-8859-1"?>
<!-- Generator: Adobe Illustrator 19.0.0, SVG Export Plug-In . SVG Version: 6.00 Build 0)  -->
<svg version="1.1" id="Capa_1" xmlns="http://www.w3.org/2000/svg" xmlns:xlink="http://www.w3.org/1999/xlink" x="0px" y="0px"
	 viewBox="0 0 464 464" style="enable-background:new 0 0 464 464;" xml:space="preserve">
<path style="fill:#87CED9;" d="M16,144h432v272H16V144z"/>
<path style="fill:#4398D1;" d="M0,96h464v48H0V96z"/>
<path style="fill:#3E8CC7;" d="M400,96h64v48h-64V96z"/>
<path style="fill:#71C4D1;" d="M148,416h300V144h-28L148,416z"/>
<path style="fill:#DEDEDE;" d="M40,48h48v48H40V48z"/>
<path style="fill:#4398D1;" d="M0,416h464v48H0V416z"/>
<path style="fill:#DEDEDE;" d="M376,48h48v48h-48V48z"/>
<path style="fill:#4398D1;" d="M296,0H152c-8.837,0-16,7.163-16,16v80h32V32h128v64h32V16c0-8.837-7.163-16-16-16H296z"/>
<path style="fill:#DEDEDE;" d="M64,192h344v176H64V192z"/>
<path style="fill:#FDB62F;" d="M248,272l20-80l4-16l-16,16l-96,96l56,0.664L196.024,368L192,384l16-16l96-96H248z"/>
<path style="fill:#DE4C3C;" d="M136,232h-16v-16h-16v16H88v16h16v16h16v-16h16V232z"/>
<path style="fill:#2A7DB8;" d="M328,232h48v16h-48V232z"/>
<g>
	<path style="fill:#3E8CC7;" d="M136,72h32v24h-32V72z"/>
	<path style="fill:#3E8CC7;" d="M296,72h32v24h-32V72z"/>
	<path style="fill:#3E8CC7;" d="M400,416h64v48h-64V416z"/>
</g>
<path style="fill:#71C4D1;" d="M16,144h432v24H16V144z"/>
<g>
</g>
<g>
</g>
<g>
</g>
<g>
</g>
<g>
</g>
<g>
</g>
<g>
</g>
<g>
</g>
<g>
</g>
<g>
</g>
<g>
</g>
<g>
</g>
<g>
</g>
<g>
</g>
<g>
</g>
</svg>
