<?xml version="1.0" encoding="iso-8859-1"?>
<!-- Generator: Adobe Illustrator 19.0.0, SVG Export Plug-In . SVG Version: 6.00 Build 0)  -->
<svg version="1.1" id="Capa_1" xmlns="http://www.w3.org/2000/svg" xmlns:xlink="http://www.w3.org/1999/xlink" x="0px" y="0px"
	 viewBox="0 0 464 464" style="enable-background:new 0 0 464 464;" xml:space="preserve">
<path style="fill:#87CED9;" d="M96,0C78.327,0,64,14.327,64,32v432h304c17.673,0,32-14.327,32-32V32c0-17.673,14.327-32,32-32H96z"
	/>
<path style="fill:#71C4D1;" d="M64,389.016V416h272v16c0,17.673,14.327,32,32,32s32-14.327,32-32V32
	c0.054-1.225,0.177-2.445,0.368-3.656C346.139,191.827,223.309,323.532,64,389.016z"/>
<g>
	<path style="fill:#4398D1;" d="M336,432v-16H0v16c0,17.673,14.327,32,32,32h336C350.327,464,336,449.673,336,432z"/>
	<path style="fill:#4398D1;" d="M464,48h-64l0,0V32c0-17.673,14.327-32,32-32s32,14.327,32,32V48L464,48z"/>
</g>
<g>
	<path style="fill:#59B3C2;" d="M144,40h176v16H144V40z"/>
	<path style="fill:#59B3C2;" d="M152,144h-40c-4.418,0-8-3.582-8-8V96c0-4.418,3.582-8,8-8h40c4.418,0,8,3.582,8,8v40
		C160,140.418,156.418,144,152,144z M120,128h24v-24h-24V128z"/>
	<path style="fill:#59B3C2;" d="M192,88h168v16H192V88z"/>
	<path style="fill:#59B3C2;" d="M192,120h136v16H192V120z"/>
	<path style="fill:#59B3C2;" d="M152,224h-40c-4.418,0-8-3.582-8-8v-40c0-4.418,3.582-8,8-8h40c4.418,0,8,3.582,8,8v40
		C160,220.418,156.418,224,152,224z M120,208h24v-24h-24V208z"/>
	<path style="fill:#59B3C2;" d="M192,168h168v16H192V168z"/>
	<path style="fill:#59B3C2;" d="M192,200h136v16H192V200z"/>
	<path style="fill:#59B3C2;" d="M152,304h-40c-4.418,0-8-3.582-8-8v-40c0-4.418,3.582-8,8-8h40c4.418,0,8,3.582,8,8v40
		C160,300.418,156.418,304,152,304z M120,288h24v-24h-24V288z"/>
	<path style="fill:#59B3C2;" d="M192,248h104v16H192V248z"/>
	<path style="fill:#59B3C2;" d="M192,280h72v16h-72V280z"/>
	<path style="fill:#59B3C2;" d="M152,384h-40c-4.418,0-8-3.582-8-8v-40c0-4.418,3.582-8,8-8h40c4.418,0,8,3.582,8,8v40
		C160,380.418,156.418,384,152,384z M120,368h24v-24h-24V368z"/>
</g>
<g>
	<path style="fill:#2A7DB8;" d="M130.342,114.348l40-40l11.314,11.314l-40,40L130.342,114.348z"/>
	<path style="fill:#2A7DB8;" d="M130.343,194.348l40-40l11.314,11.314l-40,40L130.343,194.348z"/>
	<path style="fill:#2A7DB8;" d="M130.343,274.349l40-40l11.314,11.314l-40,40L130.343,274.349z"/>
	<path style="fill:#2A7DB8;" d="M130.344,354.374l40-40l11.314,11.314l-40,40L130.344,354.374z"/>
</g>
<g>
	<path style="fill:#59B3C2;" d="M192,328h72v16h-72V328z"/>
	<path style="fill:#59B3C2;" d="M192,360h136v16H192V360z"/>
</g>
<path style="fill:#4398D1;" d="M452,164c-6.629-6.624-17.371-6.624-24,0l-28,28L296,296l-8,32l32-8l80-80l52-52
	C458.624,181.371,458.624,170.629,452,164z"/>
<path style="fill:#2A7DB8;" d="M410.346,181.656l11.314-11.314l24.002,24.002l-11.314,11.314L410.346,181.656z"/>
<g>
</g>
<g>
</g>
<g>
</g>
<g>
</g>
<g>
</g>
<g>
</g>
<g>
</g>
<g>
</g>
<g>
</g>
<g>
</g>
<g>
</g>
<g>
</g>
<g>
</g>
<g>
</g>
<g>
</g>
</svg>
