<?xml version="1.0" encoding="iso-8859-1"?>
<!-- Generator: Adobe Illustrator 19.0.0, SVG Export Plug-In . SVG Version: 6.00 Build 0)  -->
<svg version="1.1" id="Capa_1" xmlns="http://www.w3.org/2000/svg" xmlns:xlink="http://www.w3.org/1999/xlink" x="0px" y="0px"
	 viewBox="0 0 474.838 474.838" style="enable-background:new 0 0 474.838 474.838;" xml:space="preserve">
<path style="fill:#4398D1;" d="M261.419,33.419v-32h-48v32l-80,56h208L261.419,33.419z"/>
<path style="fill:#DE4C3C;" d="M421.419,425.419h-368c-8.837,0-16-7.163-16-16v-82.336c-0.001-13.084,7.964-24.851,20.112-29.712
	l19.888-7.952h320l19.888,7.952c12.148,4.861,20.113,16.628,20.112,29.712v82.336C437.419,418.256,430.255,425.419,421.419,425.419z
	"/>
<path style="fill:#D64333;" d="M417.307,297.371l-19.888-7.952h-32l19.888,7.952c12.148,4.861,20.113,16.628,20.112,29.712v82.336
	c0,8.837-7.163,16-16,16h32c8.837,0,16-7.163,16-16v-82.336C437.42,313.999,429.455,302.232,417.307,297.371z"/>
<path style="fill:#87CED9;" d="M397.419,289.419h-320l54.4-74.824c6.026-8.284,15.653-13.182,25.896-13.176h159.408
	c10.243-0.006,19.87,4.892,25.896,13.176L397.419,289.419z"/>
<g>
	<path style="fill:#EBEBEB;" d="M85.419,321.419h16c8.837,0,16,7.163,16,16v8c0,8.837-7.163,16-16,16h-16c-8.837,0-16-7.163-16-16
		v-8C69.419,328.583,76.582,321.419,85.419,321.419z"/>
	<path style="fill:#EBEBEB;" d="M373.419,321.419h16c8.837,0,16,7.163,16,16v8c0,8.837-7.163,16-16,16h-16c-8.837,0-16-7.163-16-16
		v-8C357.419,328.583,364.582,321.419,373.419,321.419z"/>
</g>
<path style="fill:#BF362C;" d="M165.419,321.419h144c8.837,0,16,7.163,16,16v8c0,8.837-7.163,16-16,16h-144c-8.837,0-16-7.163-16-16
	v-8C149.419,328.583,156.582,321.419,165.419,321.419z"/>
<path style="fill:#D64333;" d="M37.419,393.419h400l0,0v16c0,8.837-7.163,16-16,16h-368c-8.837,0-16-7.163-16-16V393.419
	L37.419,393.419z"/>
<g>
	<path style="fill:#696969;" d="M37.419,409.419v56c0,4.418,3.582,8,8,8h48c4.418,0,8-3.582,8-8v-40h-48
		C44.582,425.419,37.419,418.256,37.419,409.419z"/>
	<path style="fill:#696969;" d="M421.419,425.419h-48v40c0,4.418,3.582,8,8,8h48c4.418,0,8-3.582,8-8v-56
		C437.419,418.256,430.255,425.419,421.419,425.419z"/>
</g>
<g>
	<path style="fill:#5E5E5F;" d="M37.419,409.419v24c0,4.418,3.582,8,8,8h48c4.418,0,8-3.582,8-8v-8h-48
		C44.582,425.419,37.419,418.256,37.419,409.419z"/>
	<path style="fill:#5E5E5F;" d="M421.419,425.419h-48v8c0,4.418,3.582,8,8,8h48c4.418,0,8-3.582,8-8v-24
		C437.419,418.256,430.255,425.419,421.419,425.419z"/>
</g>
<path style="fill:#71C4D1;" d="M343.019,214.595c-6.026-8.284-15.653-13.182-25.896-13.176h-15.704l-88,88h184L343.019,214.595z"/>
<g>
	<path style="fill:#87CED9;" d="M229.419,113.419h16v24h-16V113.419z"/>
	<path style="fill:#87CED9;" d="M229.419,153.419h16v24h-16V153.419z"/>
	<path style="fill:#87CED9;" d="M136.032,126.915l15.208-18.566l12.378,10.139l-15.208,18.566L136.032,126.915z"/>
	<path style="fill:#87CED9;" d="M110.681,157.864l15.212-18.564l12.376,10.141l-15.212,18.564L110.681,157.864z"/>
	<path style="fill:#87CED9;" d="M85.336,188.808l15.212-18.564l12.376,10.141l-15.212,18.564L85.336,188.808z"/>
	<path style="fill:#87CED9;" d="M59.999,219.753l15.217-18.57l12.376,10.141l-15.217,18.57L59.999,219.753z"/>
	<path style="fill:#87CED9;" d="M183.011,134.241l6.726-23.038l15.359,4.484l-6.726,23.038L183.011,134.241z"/>
	<path style="fill:#87CED9;" d="M171.794,172.589l6.737-23.035l15.357,4.492l-6.737,23.035L171.794,172.589z"/>
	<path style="fill:#87CED9;" d="M88.194,122.171l17.642-16.271l10.842,11.756l-17.642,16.271L88.194,122.171z"/>
	<path style="fill:#87CED9;" d="M58.793,149.327l17.642-16.271l10.842,11.756l-17.642,16.271L58.793,149.327z"/>
	<path style="fill:#87CED9;" d="M29.396,176.416l17.642-16.271l10.842,11.756l-17.642,16.271L29.396,176.416z"/>
	<path style="fill:#87CED9;" d="M0,203.534l17.642-16.271l10.842,11.756L10.842,215.29L0,203.534z"/>
	<path style="fill:#87CED9;" d="M311.239,120.134l12.373-10.131l15.205,18.569l-12.373,10.131L311.239,120.134z"/>
	<path style="fill:#87CED9;" d="M336.597,151.074l12.376-10.141l15.217,18.57l-12.376,10.141L336.597,151.074z"/>
	<path style="fill:#87CED9;" d="M361.917,182.025l12.376-10.141l15.212,18.564l-12.376,10.141L361.917,182.025z"/>
	<path style="fill:#87CED9;" d="M387.261,212.966l12.377-10.14l15.21,18.565l-12.377,10.14L387.261,212.966z"/>
	<path style="fill:#87CED9;" d="M269.723,117.4l15.36-4.48l6.72,23.04l-15.36,4.48L269.723,117.4z"/>
	<path style="fill:#87CED9;" d="M280.945,155.719l15.357-4.49l6.734,23.036l-15.357,4.49L280.945,155.719z"/>
	<path style="fill:#87CED9;" d="M358.154,119.293l10.843-11.754l17.641,16.273l-10.843,11.754L358.154,119.293z"/>
	<path style="fill:#87CED9;" d="M387.559,146.438l10.845-11.753l17.639,16.275l-10.845,11.753L387.559,146.438z"/>
	<path style="fill:#87CED9;" d="M416.955,173.542l10.845-11.753l17.639,16.275l-10.845,11.753L416.955,173.542z"/>
	<path style="fill:#87CED9;" d="M446.354,200.675l10.842-11.756l17.642,16.271l-10.842,11.756L446.354,200.675z"/>
</g>
<path style="fill:#3E8CC7;" d="M280.243,46.595l-42.824,42.824h104L280.243,46.595z"/>
<g>
</g>
<g>
</g>
<g>
</g>
<g>
</g>
<g>
</g>
<g>
</g>
<g>
</g>
<g>
</g>
<g>
</g>
<g>
</g>
<g>
</g>
<g>
</g>
<g>
</g>
<g>
</g>
<g>
</g>
</svg>
