<?xml version="1.0" encoding="iso-8859-1"?>
<!-- Generator: Adobe Illustrator 19.0.0, SVG Export Plug-In . SVG Version: 6.00 Build 0)  -->
<svg version="1.1" id="Capa_1" xmlns="http://www.w3.org/2000/svg" xmlns:xlink="http://www.w3.org/1999/xlink" x="0px" y="0px"
	 viewBox="0 0 464.02 464.02" style="enable-background:new 0 0 464.02 464.02;" xml:space="preserve">
<path style="fill:#4398D1;" d="M379.409,280c0-26.51-21.49-48-48-48h-192c-26.51,0-48,21.49-48,48v56l32,16h256V280z"/>
<path style="fill:#3E8CC7;" d="M331.409,232h-32c26.51,0,48,21.49,48,48v72h32v-72C379.409,253.49,357.919,232,331.409,232z"/>
<path style="fill:#FEC9A3;" d="M203.409,176v56l32,48l32-48v-56H203.409z"/>
<path style="fill:#EBEBEB;" d="M203.409,232l32,48l32-48H203.409z"/>
<g>
	<path style="fill:#2A7DB8;" d="M131.409,296h16v56h-16V296z"/>
	<path style="fill:#2A7DB8;" d="M323.409,296h16v56h-16V296z"/>
	<path style="fill:#2A7DB8;" d="M283.409,232h-16l-32,48l-32-48h-16v32l40,13.336V352h16v-74.664l40-13.336V232z"/>
	<path style="fill:#2A7DB8;" d="M259.409,312h48v16h-48V312z"/>
</g>
<path style="fill:#F0B081;" d="M203.409,176v32.424c20.138,10.102,43.862,10.102,64,0V176H203.409z"/>
<path style="fill:#FEC9A3;" d="M163.409,80v48c0,39.764,32.236,72,72,72s72-32.236,72-72V80H163.409z"/>
<path style="fill:#F7BB8F;" d="M275.409,80v48c-0.022,33.582-23.257,62.689-56,70.152c38.643,8.938,77.215-15.142,86.153-53.784
	c1.241-5.367,1.861-10.859,1.847-16.368V80H275.409z"/>
<path style="fill:#4398D1;" d="M307.409,72V40c0-22.091-17.909-40-40-40h-64c-22.091,0-40,17.909-40,40v48h192V72H307.409z"/>
<path style="fill:#F0B081;" d="M227.409,104h16v40h-16V104z"/>
<g>
	<path style="fill:#87CED9;" d="M163.409,128h-40V80h40V128z"/>
	<path style="fill:#87CED9;" d="M158.969,198.656l-24-16c-2.225-1.484-3.56-3.982-3.56-6.656v-48h16v43.72l20.44,13.6
		L158.969,198.656z"/>
	<path style="fill:#87CED9;" d="M387.409,352h73.272c-17.636-40.467-64.738-58.975-105.205-41.339
		c-18.506,8.065-33.274,22.834-41.339,41.339H156.681c-17.673-40.494-64.827-58.994-105.321-41.321
		C10.865,328.352-7.635,375.506,10.038,416s64.827,58.994,105.321,41.321c18.492-8.07,33.251-22.83,41.321-41.321h157.456
		c17.636,40.467,64.738,58.975,105.205,41.339c18.506-8.065,33.274-22.834,41.339-41.339h-73.272V352z M123.409,408l-40,24
		l-40.664-21.336L43.409,360l40-24l40,24V408z"/>
</g>
<g>
	<path style="fill:#3E8CC7;" d="M275.409,40v32h32V40c0-22.091-17.909-40-40-40h-32C257.5,0,275.409,17.909,275.409,40z"/>
	<path style="fill:#3E8CC7;" d="M323.409,72h32v16h-32V72z"/>
</g>
<path style="fill:#71C4D1;" d="M387.409,352h73.272c-17.636-40.467-64.738-58.975-105.205-41.339
	c-18.506,8.065-33.274,22.834-41.339,41.339h-38.728l-64,64h102.728c17.636,40.467,64.738,58.975,105.205,41.339
	c18.506-8.065,33.274-22.834,41.339-41.339h-73.272V352z"/>
<path style="fill:#59B3C2;" d="M155.409,376h160v16h-160V376z"/>
<path style="fill:#71C4D1;" d="M131.409,128h16v16h-16V128z"/>
<g>
</g>
<g>
</g>
<g>
</g>
<g>
</g>
<g>
</g>
<g>
</g>
<g>
</g>
<g>
</g>
<g>
</g>
<g>
</g>
<g>
</g>
<g>
</g>
<g>
</g>
<g>
</g>
<g>
</g>
</svg>
