<?xml version="1.0" encoding="iso-8859-1"?>
<!-- Generator: Adobe Illustrator 19.0.0, SVG Export Plug-In . SVG Version: 6.00 Build 0)  -->
<svg version="1.1" id="Capa_1" xmlns="http://www.w3.org/2000/svg" xmlns:xlink="http://www.w3.org/1999/xlink" x="0px" y="0px"
	 viewBox="0 0 472 472" style="enable-background:new 0 0 472 472;" xml:space="preserve">
<circle style="fill:#737373;" cx="172" cy="296" r="168"/>
<circle style="fill:#4398D1;" cx="172" cy="296" r="120"/>
<path style="fill:#87CED9;" d="M289.6,320c3.211-15.839,3.211-32.161,0-48h-59.656l42.136-42.144
	c-8.922-13.474-20.462-25.014-33.936-33.936L196,238.056V178.4c-15.839-3.211-32.161-3.211-48,0v59.648l-42.144-42.128
	c-13.474,8.922-25.014,20.462-33.936,33.936L114.056,272H54.4c-3.211,15.839-3.211,32.161,0,48h59.648L71.92,362.144
	c8.924,13.472,20.464,25.012,33.936,33.936L148,353.944V413.6c15.839,3.211,32.161,3.211,48,0v-59.656l42.144,42.136
	c13.472-8.924,25.012-20.464,33.936-33.936L229.944,320H289.6z"/>
<g>
	<circle style="fill:#4398D1;" cx="172" cy="296" r="16"/>
	<path style="fill:#4398D1;" d="M164,240h16v16h-16V240z"/>
	<path style="fill:#4398D1;" d="M116,288h16v16h-16V288z"/>
	<path style="fill:#4398D1;" d="M212,288h16v16h-16V288z"/>
	<path style="fill:#4398D1;" d="M164,336h16v16h-16V336z"/>
</g>
<path style="fill:#87CED9;" d="M364,160h32v96h-32V160z"/>
<path style="fill:#59B3C2;" d="M364,216h32v16h-32V216z"/>
<g>
	<path style="fill:#DE4C3C;" d="M396,192h40v16h-40V192z"/>
	<path style="fill:#DE4C3C;" d="M428,184h16v32h-16V184z"/>
</g>
<path style="fill:#59B3C2;" d="M364,160v30.48c10.57,2.027,21.43,2.027,32,0V160H364z"/>
<circle style="fill:#87CED9;" cx="380" cy="88" r="88"/>
<circle style="fill:#8DD7E3;" cx="380" cy="88" r="56"/>
<path style="fill:#59B3C2;" d="M425.248,133.256l-11.312-11.32c18.748-18.742,18.753-49.134,0.01-67.882s-49.134-18.753-67.882-0.01
	s-18.753,49.134-0.01,67.882c0.003,0.003,0.007,0.007,0.01,0.01l-11.312,11.32c-24.997-24.99-25.003-65.512-0.014-90.51
	s65.512-25.003,90.51-0.014s25.003,65.512,0.014,90.51C425.257,133.247,425.253,133.251,425.248,133.256L425.248,133.256z"/>
<g>
	<path style="fill:#DE4C3C;" d="M425.656,53.656l-11.312-11.312L384.088,72.6c-1.33-0.379-2.705-0.581-4.088-0.6
		c-8.837,0-16,7.163-16,16s7.163,16,16,16s16-7.163,16-16c-0.019-1.383-0.221-2.758-0.6-4.088L425.656,53.656z"/>
	<path style="fill:#DE4C3C;" d="M372,256v172c0,15.464-12.536,28-28,28s-28-12.536-28-28v-40c0-24.301-19.699-44-44-44
		s-44,19.699-44,44v14.096c5.594-2.993,10.944-6.423,16-10.256V388c0-15.464,12.536-28,28-28l0,0c0.448,0,0.864,0.112,1.304,0.128
		C288.207,360.823,299.948,373.081,300,388v40c0,24.301,19.699,44,44,44s44-19.699,44-44V256H372z"/>
</g>
<g>
</g>
<g>
</g>
<g>
</g>
<g>
</g>
<g>
</g>
<g>
</g>
<g>
</g>
<g>
</g>
<g>
</g>
<g>
</g>
<g>
</g>
<g>
</g>
<g>
</g>
<g>
</g>
<g>
</g>
</svg>
